<!DOCTYPE svg PUBLIC "-//W3C//DTD SVG 1.1//EN" "http://www.w3.org/Graphics/SVG/1.1/DTD/svg11.dtd">
<!-- Uploaded to: SVG Repo, www.svgrepo.com, Transformed by: SVG Repo Mixer Tools -->
<svg width="800px" height="800px" viewBox="0 0 20 20" xmlns="http://www.w3.org/2000/svg" fill="#000000">
<g id="SVGRepo_bgCarrier" stroke-width="0"/>
<g id="SVGRepo_tracerCarrier" stroke-linecap="round" stroke-linejoin="round"/>
<g id="SVGRepo_iconCarrier"> <g id="adventure-backpack" transform="translate(-2 -2)"> <path id="secondary" fill="#3572AB" d="M19,3H5A1,1,0,0,0,4,4V7A2,2,0,0,0,5,8.72V20a1,1,0,0,0,1,1H9V16a1,1,0,0,1,1-1h4a1,1,0,0,1,1,1v5h3a1,1,0,0,0,1-1V8.72A2,2,0,0,0,20,7V4A1,1,0,0,0,19,3Z"/> <path id="primary" d="M19,9V20a1,1,0,0,1-1,1H6a1,1,0,0,1-1-1V9" fill="none" stroke="#19191D" stroke-linecap="round" stroke-linejoin="round" stroke-width="2"/> <path id="primary-2" data-name="primary" d="M19,19h1a1,1,0,0,0,1-1V15H19ZM5,15H3v3a1,1,0,0,0,1,1H5ZM20,7V4a1,1,0,0,0-1-1H5A1,1,0,0,0,4,4V7A2,2,0,0,0,6,9H18A2,2,0,0,0,20,7ZM15,8v2M9,8v2m6,11H9V16a1,1,0,0,1,1-1h4a1,1,0,0,1,1,1Z" fill="none" stroke="#19191D" stroke-linecap="round" stroke-linejoin="round" stroke-width="2"/> </g> </g>
</svg>